HIERARCHY
ROOT hip
{
	OFFSET 0.000000 0.000000 0.000000 
	CHANNELS 6 Xposition Yposition Zposition Xrotation Zrotation Yrotation
	JOINT abdomen
	{
		OFFSET 0.000000 3.402643 0.000000 
		CHANNELS 3 Xrotation Zrotation Yrotation
		JOINT chest
		{
			OFFSET 0.000000 8.438565 -0.680529 
			CHANNELS 3 Xrotation Zrotation Yrotation
			JOINT neck
			{
				OFFSET 0.000000 10.207942 -0.272212 
				CHANNELS 3 Xrotation Zrotation Yrotation
				JOINT head
				{
					OFFSET 0.000000 3.130431 0.000000 
					CHANNELS 3 Xrotation Zrotation Yrotation
					End Site
					{
						OFFSET 0.000000 3.130435 0.000000 
					}
				}
			}
			JOINT lCollar
			{
				OFFSET 3.470700 6.669187 -0.816635 
				CHANNELS 3 Yrotation Zrotation Xrotation
				JOINT lShldr
				{
					OFFSET 3.198488 0.000000 0.000000 
					CHANNELS 3 Zrotation Yrotation Xrotation
					JOINT lForeArm
					{
						OFFSET 10.139888 0.000000 0.000000 
						CHANNELS 3 Yrotation Zrotation Xrotation
						JOINT lHand
						{
							OFFSET 8.370511 0.000000 0.000000 
							CHANNELS 3 Zrotation Yrotation Xrotation
							End Site
							{
								OFFSET 4.083176 0.000000 0.000000 
							}
						}
					}
				}
			}
			JOINT rCollar
			{
				OFFSET -3.470700 6.669187 -0.816635 
				CHANNELS 3 Yrotation Zrotation Xrotation
				JOINT rShldr
				{
					OFFSET -3.198488 0.000000 0.000000 
					CHANNELS 3 Zrotation Yrotation Xrotation
					JOINT rForeArm
					{
						OFFSET -10.139888 0.000000 0.000000 
						CHANNELS 3 Yrotation Zrotation Xrotation
						JOINT rHand
						{
							OFFSET -8.370511 0.000000 0.000000 
							CHANNELS 3 Zrotation Yrotation Xrotation
							End Site
							{
								OFFSET -4.083176 0.000000 0.000000 
							}
						}
					}
				}
			}
		}
	}
	JOINT lThigh
	{
		OFFSET 5.308129 -1.633274 1.361059 
		CHANNELS 3 Xrotation Zrotation Yrotation
		JOINT lShin
		{
			OFFSET 13.358421 -8.107554 14.700000 
			CHANNELS 3 Xrotation Zrotation Yrotation
			JOINT lFoot
			{
				OFFSET 0.000000 -19.190928 -1.224953 
				CHANNELS 3 Xrotation Yrotation Zrotation
				End Site
				{
					OFFSET 0.000000 -2.449906 4.627600 
				}
			}
		}
	}
	JOINT rThigh
	{
		OFFSET -5.308129 -1.633274 1.361059 
		CHANNELS 3 Xrotation Zrotation Yrotation
		JOINT rShin
		{
			OFFSET 2.041588 -20.007561 0.000000 
			CHANNELS 3 Xrotation Zrotation Yrotation
			JOINT rFoot
			{
				OFFSET 0.000000 -19.190928 -1.224953 
				CHANNELS 3 Xrotation Yrotation Zrotation
				End Site
				{
					OFFSET 0.000000 -2.449906 4.627600 
				}
			}
		}
	}
}
MOTION
Frames: 16
Frame Time: 0.033333
-48.740002 43.233910 20.165684 4.632520 5.723554 105.766350 32.097427 -4.681859 -12.185040 -20.839844 0.000000 0.000000 -20.178190 14.484024 9.428517 -2.520860 -1.255023 0.218345 -4.754609 -0.109182 -0.002653 -64.304039 1.285618 7.510583 -7.344232 -17.559155 37.273533 -1.677547 13.312196 4.887763 4.754609 0.109182 -0.002672 90.139252 -0.228627 -9.002953 2.518286 0.121523 19.114670 -3.248846 3.228610 33.520061 32.811737 1.559968 -73.624062 176.961197 153.023331 -13.153996 -60.725895 -121.014549 -59.808552 -14.668347 -39.130970 -31.418966 37.995415 16.664501 -11.729137 -5.173623 1.318395 -0.716600 
-48.674511 43.232391 20.188007 4.651674 5.664994 106.085823 32.005211 -4.520780 -12.566246 -20.839844 0.000000 0.000000 -19.507902 14.634814 9.145927 -2.520860 -1.255023 0.218345 -4.754609 -0.109182 -0.002653 -64.441460 1.611752 8.394147 -8.273724 -18.030020 37.092869 -2.512815 12.976344 2.596492 4.754609 0.109182 -0.002672 89.735619 0.451162 -9.032855 2.515808 0.109240 18.694481 -3.429790 3.383824 33.522652 32.822178 1.619445 -73.578133 176.911331 153.007706 -13.324139 -60.326111 -121.099251 -59.579605 -14.023765 -38.867455 -31.663773 36.594055 16.492588 -12.185781 -2.105992 1.454544 -0.616677 
-48.633389 43.246094 20.221012 4.466060 5.773551 106.456696 32.105038 -4.328953 -12.985406 -20.839844 0.000000 0.000000 -18.669844 14.830366 8.799637 -2.520860 -1.255023 0.218345 -4.754609 -0.109182 -0.002653 -63.860977 1.356755 11.188938 -9.669991 -19.194784 37.862392 -3.365749 12.328525 -2.247515 4.754609 0.109182 -0.002672 89.525681 1.371374 -9.221186 2.512219 0.090763 18.069080 -3.493933 3.737418 33.975319 32.918751 1.881071 -73.331429 176.902618 152.955246 -13.484394 -59.861122 -121.243958 -59.323212 -13.369429 -38.485409 -31.932869 35.849537 16.520193 -12.667624 -0.819799 1.400819 -0.567518 
-48.597347 43.254730 20.253498 4.495428 5.763585 106.624901 32.196636 -4.196063 -13.439638 -20.839844 0.000000 0.000000 -18.193724 15.030622 8.594256 -2.520860 -1.255023 0.218345 -4.754609 -0.109182 -0.002653 -64.106430 0.795711 12.002108 -9.972780 -19.329979 38.570564 -2.524209 12.085129 -2.227234 4.754609 0.109182 -0.002672 89.295273 2.212372 -9.108719 2.510416 0.076827 17.746534 -3.633741 4.298580 34.075100 32.927467 1.653075 -73.274330 177.497818 152.846161 -13.068249 -59.021626 -121.425339 -58.836426 -13.564556 -38.271690 -31.403811 35.809662 16.167879 -12.727519 -0.483706 0.762850 -0.209164 
-48.560787 43.215126 20.255039 4.770905 5.839214 107.088516 32.534328 -4.320419 -14.249722 -20.839844 0.000000 0.000000 -18.191713 15.406441 8.055434 -2.520860 -1.255023 0.218345 -4.754609 -0.109182 -0.002653 -64.961182 0.202899 10.547779 -9.424069 -18.428988 37.774727 -1.578470 11.711559 0.643663 4.754609 0.109182 -0.002672 89.476784 3.001214 -8.704009 2.533991 0.070344 16.925827 -3.238534 4.549277 33.066223 33.173195 1.539928 -73.413757 177.352112 152.717606 -13.359577 -58.583237 -121.584923 -58.553143 -13.654580 -38.507740 -30.943352 36.282478 15.732101 -12.489052 -0.530635 0.034584 0.379501 
-48.576015 43.133392 20.234211 5.067732 6.089564 107.619133 33.137150 -4.626472 -14.871285 -20.839844 0.000000 0.000000 -18.642302 15.748796 7.693839 -2.520860 -1.255023 0.218345 -4.754609 -0.109182 -0.002653 -65.000137 -0.603686 10.629990 -9.672709 -18.197531 37.523949 -1.721052 11.793076 0.749977 4.754609 0.109182 -0.002672 89.934029 3.666208 -8.445678 2.548065 0.052603 15.987803 -2.862076 5.082339 32.260876 33.632263 1.931781 -73.653107 175.945816 152.691742 -14.707341 -59.496799 -121.480858 -59.004646 -13.398572 -39.081718 -31.093102 37.018654 15.637522 -12.242240 -1.000233 -0.342794 0.642032 
-48.623745 43.090240 20.212376 5.254802 6.136410 107.781029 33.164101 -4.737646 -14.925856 -20.839844 0.000000 0.000000 -19.037300 15.648005 7.842334 -2.520860 -1.255023 0.218345 -4.754609 -0.109182 -0.002653 -64.951790 -1.348457 11.783330 -10.596399 -18.532377 37.141239 -2.334357 11.951817 -1.662843 4.754609 0.109182 -0.002672 90.002205 3.720590 -8.485288 2.539436 0.047277 16.144028 -2.877691 5.495294 32.697777 33.730358 2.156016 -73.859886 175.014893 152.809708 -15.501203 -60.488613 -121.268700 -59.442467 -13.430601 -39.571095 -31.314501 37.613125 15.744158 -12.033034 -1.872109 -0.308303 0.581447 
-48.663342 43.075005 20.188511 5.342708 6.086923 107.737061 32.958271 -4.503928 -14.698999 -20.839844 0.000000 0.000000 -19.606598 15.259093 8.109421 -2.520860 -1.255023 0.218345 -4.754609 -0.109182 -0.002653 -65.611717 -1.941487 11.904249 -11.044446 -18.371048 36.518631 -2.149883 11.777188 -1.875036 4.754609 0.109182 -0.002672 89.658783 3.408739 -8.413935 2.524852 0.066832 16.964891 -2.809452 5.400594 33.131695 33.641346 2.007609 -73.986305 175.106079 152.819046 -15.400006 -60.637936 -121.349770 -59.406219 -13.595517 -40.044868 -31.631231 38.424183 16.037613 -11.610676 -3.476873 0.145262 0.334920 
-48.727322 43.109535 20.214909 5.083368 5.651656 107.426193 32.469353 -4.392255 -14.282209 -20.839844 0.000000 0.000000 -20.317532 15.126060 8.635689 -2.520860 -1.255023 0.218345 -4.754609 -0.109182 -0.002653 -65.943832 -2.507114 11.695239 -11.429640 -18.111423 35.981525 -2.186148 11.255642 -1.473106 4.754609 0.109182 -0.002672 89.652412 3.242560 -8.265919 2.518647 0.083166 17.551250 -2.931407 4.923823 33.447006 32.949661 1.776911 -73.828766 175.821472 152.736115 -14.749623 -60.254475 -121.545631 -59.153160 -14.542513 -40.368027 -31.806702 40.006100 16.759920 -11.145970 -7.568312 0.818012 -0.226314 
-48.801434 43.189743 20.279911 4.578235 5.032802 106.955383 31.726402 -4.404492 -13.662456 -20.839844 0.000000 0.000000 -21.167538 15.366534 9.129243 -2.520860 -1.255023 0.218345 -4.754609 -0.109182 -0.002653 -65.881012 -3.043630 11.892904 -11.819267 -18.047834 35.708439 -2.508434 10.947237 -1.858874 4.754609 0.109182 -0.002672 90.016876 3.028232 -8.293423 2.518753 0.082830 17.570778 -3.246408 4.699040 33.562813 31.891710 1.631328 -73.518188 176.855103 152.810730 -13.761417 -59.803120 -121.731842 -58.880779 -15.939754 -40.520184 -31.799410 42.294697 17.721973 -10.576302 -14.320827 1.408113 -0.821821 
-48.817669 43.212074 20.288532 4.450461 4.985000 106.627960 31.741262 -4.359433 -13.344707 -20.839844 0.000000 0.000000 -22.436270 15.763326 9.509921 -2.520860 -1.255023 0.218345 -4.754609 -0.109182 -0.002653 -65.484093 -3.399050 12.934001 -12.614158 -18.393400 36.057537 -2.593765 11.158373 -3.322781 4.754609 0.109182 -0.002672 90.368866 2.900905 -8.321397 2.526651 0.080515 17.306971 -3.263474 4.573268 33.333870 31.765574 1.564483 -73.413658 177.201736 152.846771 -13.351910 -59.834637 -121.755867 -58.914677 -16.787857 -40.866100 -31.541946 44.904938 18.114946 -9.584280 -21.241638 1.549908 -0.819562 
-48.810055 43.230354 20.265171 4.432062 5.160388 106.288231 32.054630 -4.302813 -13.141109 -20.839844 0.000000 0.000000 -23.300007 16.039633 9.956161 -2.520860 -1.255023 0.218345 -4.754609 -0.109182 -0.002653 -64.634102 -3.460269 14.949240 -14.081333 -19.046974 37.040028 -2.961330 11.915639 -6.107647 4.754609 0.109182 -0.002672 90.634445 2.873766 -8.408886 2.526030 0.072754 17.189632 -2.933544 4.005665 33.527210 31.950235 1.582460 -73.430298 177.236206 152.927795 -13.178127 -60.143085 -121.486443 -59.121941 -17.481373 -40.886620 -30.821922 46.783901 17.951836 -8.613425 -26.102165 1.310513 -0.072543 
-48.792797 43.233910 20.275333 4.462733 5.335431 106.099411 32.327545 -4.227924 -13.098668 -20.839844 0.000000 0.000000 -23.718462 16.233932 10.364347 -2.520860 -1.255023 0.218345 -4.754609 -0.109182 -0.002653 -64.351982 -3.301103 15.220778 -14.529243 -19.076784 37.309711 -3.243249 12.493993 -6.382341 4.754609 0.109182 -0.002672 90.817581 2.605051 -8.504216 2.518383 0.074243 17.502262 -2.905138 4.009603 34.028919 32.194710 1.896065 -73.470711 176.588882 153.108994 -13.637280 -60.924011 -121.112671 -59.695049 -17.921427 -40.930153 -30.319469 48.075577 17.751978 -7.889124 -28.861193 0.970142 1.124171 
-48.769451 43.219193 20.313908 4.492661 5.403368 106.000969 32.590183 -4.250413 -13.205953 -20.839844 0.000000 0.000000 -24.433216 16.565153 10.737746 -2.520860 -1.255023 0.218345 -4.754609 -0.109182 -0.002653 -65.070770 -2.926697 12.635618 -13.393947 -18.019363 36.603153 -2.707746 12.370458 -2.180100 4.754609 0.109182 -0.002672 91.183167 2.273703 -8.481497 2.510524 0.076488 17.766058 -2.639481 4.329502 34.265079 32.333839 2.118028 -73.474335 176.111786 153.205170 -14.008068 -61.400608 -120.939468 -60.042252 -18.154869 -40.954971 -30.064365 48.837868 17.693871 -7.478410 -30.449659 0.912509 1.466497 
-48.721706 43.216141 20.366718 4.403193 5.238486 105.959549 32.590412 -4.167658 -13.426087 -20.839844 0.000000 0.000000 -24.967899 16.979111 11.237221 -2.520860 -1.255023 0.218345 -4.754609 -0.109182 -0.002653 -65.175583 -2.454281 11.466886 -13.016108 -17.457935 36.100719 -2.083795 11.890995 -0.690863 4.754609 0.109182 -0.002672 91.585991 2.043485 -8.361976 2.519448 0.080644 17.697712 -2.635909 4.452588 33.913292 32.187302 2.118286 -73.349205 176.335007 153.134705 -13.830105 -61.154869 -121.017426 -59.915211 -18.478390 -40.734528 -29.821852 48.816311 17.662111 -7.525756 -30.278873 0.910748 1.206471 
-48.645077 43.166893 20.411396 4.373774 5.238691 105.800621 32.733200 -4.168099 -13.520228 -20.839844 0.000000 0.000000 -25.316582 17.354818 11.713386 -2.520860 -1.255023 0.218345 -4.754609 -0.109182 -0.002653 -64.463661 -2.314342 11.559697 -12.716265 -17.804411 36.089157 -2.007041 11.507364 -1.533813 4.754609 0.109182 -0.002672 91.977051 1.860805 -8.369618 2.518913 0.082325 17.600071 -3.261155 4.576200 33.817005 32.391586 2.016595 -73.236488 176.629715 152.766144 -13.479298 -60.853893 -121.197021 -59.825817 -18.409025 -40.221100 -29.700596 47.242947 17.541533 -8.150044 -25.929476 1.330756 -0.461610 
